<?xml version="1.0" standalone="no"?>
<!DOCTYPE svg PUBLIC "-//W3C//DTD SVG 20010904//EN"
 "http://www.w3.org/TR/2001/REC-SVG-20010904/DTD/svg10.dtd">
<svg version="1.0" xmlns="http://www.w3.org/2000/svg"
 width="512.000000pt" height="512.000000pt" viewBox="0 0 512.000000 512.000000"
 preserveAspectRatio="xMidYMid meet">
<metadata>
Created by potrace 1.16, written by Peter Selinger 2001-2019
</metadata>
<g transform="translate(0.000000,512.000000) scale(0.100000,-0.100000)"
fill="#000000" stroke="none">
<path d="M2428 4694 c-434 -67 -792 -388 -905 -812 -35 -130 -37 -305 -5 -433
61 -245 220 -485 416 -624 l56 -40 -2 -54 -3 -53 -103 -39 c-772 -289 -1337
-1008 -1457 -1852 -12 -85 -12 -104 1 -147 19 -63 67 -127 128 -168 100 -67
-42 -62 2026 -60 l1875 3 56 26 c76 36 133 89 165 156 32 65 33 112 8 262
-137 808 -699 1500 -1446 1780 l-103 39 -3 53 -2 54 56 40 c81 57 224 210 278
298 59 95 107 207 137 323 34 128 32 301 -4 436 -81 306 -296 568 -585 712
-84 43 -223 85 -329 101 -115 18 -140 17 -255 -1z m412 -268 c261 -85 455
-287 521 -544 24 -95 26 -331 4 -437 -43 -205 -197 -402 -395 -504 -134 -70
-208 -86 -410 -86 -152 0 -185 3 -253 23 -272 78 -481 288 -547 548 -28 109
-28 349 0 457 71 280 299 498 585 561 52 12 113 15 240 12 153 -3 178 -6 255
-30z m105 -1936 c561 -120 1044 -501 1310 -1030 112 -223 175 -436 175 -590 0
-106 -13 -140 -73 -184 l-28 -21 -1769 0 -1769 0 -28 21 c-15 11 -38 36 -51
54 -33 49 -31 192 3 325 180 692 733 1250 1398 1410 160 39 225 44 487 40 204
-3 262 -7 345 -25z"/>
</g>
</svg>
