<?xml version="1.0" standalone="no"?>
<!DOCTYPE svg PUBLIC "-//W3C//DTD SVG 20010904//EN"
 "http://www.w3.org/TR/2001/REC-SVG-20010904/DTD/svg10.dtd">
<svg version="1.0" xmlns="http://www.w3.org/2000/svg"
 width="512.000000pt" height="512.000000pt" viewBox="0 0 512.000000 512.000000"
 preserveAspectRatio="xMidYMid meet">
<metadata>
Created by potrace 1.16, written by Peter Selinger 2001-2019
</metadata>
<g transform="translate(0.000000,512.000000) scale(0.100000,-0.100000)"
fill="#000000" stroke="none">
<path d="M1334 4399 c-255 -30 -466 -215 -541 -474 -16 -55 -18 -153 -21
-1195 -2 -669 1 -1174 7 -1230 10 -109 39 -203 82 -274 l30 -48 -36 4 c-19 2
-35 0 -35 -4 0 -4 -13 -8 -30 -8 -16 0 -30 -4 -30 -9 0 -5 -25 -12 -55 -16
-30 -3 -55 -10 -55 -15 0 -5 -13 -11 -30 -15 -16 -4 -30 -10 -30 -15 0 -5 -13
-11 -30 -15 -17 -4 -30 -13 -30 -21 0 -8 -4 -14 -10 -14 -5 0 -10 -13 -10 -30
0 -16 5 -30 10 -30 6 0 10 -6 10 -13 0 -24 36 -57 69 -63 21 -4 31 -12 31 -24
0 -13 11 -21 32 -25 18 -4 36 -12 40 -18 3 -6 31 -12 62 -15 31 -2 56 -9 56
-15 0 -6 17 -7 45 -4 25 4 45 3 45 -2 0 -13 84 -22 250 -26 80 -2 192 -9 250
-16 146 -17 2066 -17 2225 0 61 6 166 13 235 15 160 5 403 26 410 36 3 4 38
11 78 15 39 4 72 11 72 16 0 5 18 12 40 15 22 4 40 10 40 15 0 5 7 9 15 9 8 0
15 7 15 15 0 8 5 15 10 15 6 0 10 8 10 19 0 10 11 27 25 37 20 15 25 28 25 61
0 24 -4 43 -10 43 -5 0 -10 7 -10 15 0 8 -14 17 -35 21 -19 3 -35 10 -35 15 0
4 -20 11 -45 15 -25 3 -45 10 -45 14 0 4 -32 11 -72 15 -94 10 -106 21 -77 77
12 23 31 67 43 98 21 55 21 59 24 1270 2 864 0 1232 -8 1275 -6 33 -32 103
-57 155 -78 162 -215 277 -393 332 l-75 22 -1205 2 c-663 1 -1237 -2 -1276 -7z
m2543 -42 c155 -52 291 -167 356 -301 39 -80 43 -103 17 -111 -36 -11 -199
-140 -223 -176 -46 -69 -282 -219 -344 -219 -15 0 -40 15 -66 41 -75 74 -122
100 -197 110 -40 6 -415 9 -912 7 l-843 -3 -43 -23 c-24 -13 -71 -48 -104 -79
-55 -50 -64 -55 -97 -50 -67 9 -295 160 -331 219 -23 38 -150 143 -202 167
l-37 17 24 59 c79 194 265 336 480 365 33 4 595 7 1250 6 l1190 -1 82 -28z
m-73 -1204 c8 -8 -1183 -1203 -1199 -1203 -6 0 -275 265 -600 590 -400 400
-586 593 -579 600 7 7 403 11 1184 13 646 1 1178 3 1181 5 3 1 9 -1 13 -5z"/>
</g>
</svg>
