<?xml version="1.0" standalone="no"?>
<!DOCTYPE svg PUBLIC "-//W3C//DTD SVG 20010904//EN"
 "http://www.w3.org/TR/2001/REC-SVG-20010904/DTD/svg10.dtd">
<svg version="1.0" xmlns="http://www.w3.org/2000/svg"
 width="512.000000pt" height="512.000000pt" viewBox="0 0 512.000000 512.000000"
 preserveAspectRatio="xMidYMid meet">
<metadata>
Created by potrace 1.16, written by Peter Selinger 2001-2019
</metadata>
<g transform="translate(0.000000,512.000000) scale(0.100000,-0.100000)"
fill="#000000" stroke="none">
<path d="M4140 4592 c-19 -11 -42 -35 -52 -54 -10 -20 -38 -140 -62 -267 -23
-127 -45 -233 -47 -236 -3 -2 -821 -51 -1819 -109 -998 -59 -1831 -109 -1850
-112 -45 -7 -106 -69 -115 -114 -8 -43 246 -1436 275 -1510 71 -179 227 -320
389 -350 34 -6 536 -10 1388 -10 1266 0 1334 -1 1329 -17 -2 -10 -15 -78 -28
-150 l-23 -133 -1145 0 c-1020 0 -1152 -2 -1201 -16 -270 -79 -427 -344 -364
-612 42 -177 173 -320 343 -372 88 -27 227 -27 315 0 265 82 418 381 329 645
l-19 55 673 0 672 0 -19 -49 c-59 -157 -17 -370 101 -504 55 -62 148 -123 227
-147 89 -27 227 -27 316 0 244 76 398 339 346 592 -26 125 -117 258 -224 326
-22 15 -42 27 -44 29 -2 2 112 640 255 1418 l259 1415 233 0 c273 0 293 5 332
85 37 76 16 153 -53 195 -30 19 -53 20 -357 20 -297 0 -328 -2 -360 -18z
m-220 -884 c0 -7 -16 -106 -37 -219 l-37 -206 -331 -9 c-181 -5 -331 -8 -333
-8 -5 3 32 394 39 405 3 6 131 18 295 28 372 24 404 24 404 9z m-914 -80 c-4
-24 -13 -115 -21 -203 -9 -87 -17 -161 -19 -162 -3 -4 -486 -22 -583 -23 l-53
0 0 195 0 195 33 1 c17 0 158 9 312 18 154 10 293 19 308 20 28 1 28 0 23 -41z
m-886 -202 l0 -193 -247 -7 c-137 -3 -293 -9 -349 -12 l-100 -6 -22 177 c-13
98 -20 180 -17 184 3 3 164 15 358 27 194 12 358 22 365 23 9 1 12 -44 12
-193z m-946 107 c3 -16 13 -93 22 -172 13 -111 14 -145 5 -151 -16 -9 -600
-24 -609 -15 -5 5 -71 322 -68 326 2 1 552 36 598 38 43 1 47 -1 52 -26z
m2631 -475 c-3 -13 -18 -94 -34 -181 -16 -87 -30 -159 -32 -162 -2 -2 -140 -5
-307 -7 l-302 -3 0 30 c1 41 28 316 32 320 2 2 140 7 308 12 168 6 313 10 323
11 13 2 16 -3 12 -20z m-859 -55 c-3 -27 -11 -104 -17 -173 -6 -69 -12 -126
-13 -126 0 -1 -133 -4 -293 -8 l-293 -7 0 170 0 171 33 1 c148 6 428 16 500
17 l89 2 -6 -47z m-826 -141 l0 -169 -152 -6 c-83 -4 -225 -7 -314 -7 -162 0
-164 0 -168 23 -9 40 -38 299 -34 302 2 1 149 7 328 12 179 5 328 10 333 11 4
1 7 -74 7 -166z m-876 101 c3 -21 10 -78 16 -128 6 -49 13 -107 16 -127 l6
-38 -301 0 c-166 0 -301 3 -301 8 0 4 -12 71 -26 150 -14 79 -24 145 -21 148
4 5 306 17 539 22 l66 2 6 -37z m2456 -460 c0 -5 -14 -88 -32 -185 l-32 -178
-283 0 -283 0 4 23 c3 12 10 85 16 162 6 77 14 148 16 157 5 16 29 18 267 21
144 1 277 3 295 5 17 1 32 -1 32 -5z m-806 -60 c-3 -27 -11 -104 -17 -173
l-12 -125 -267 -3 -268 -2 0 169 c0 126 3 171 13 174 6 3 134 6 284 6 l272 1
-5 -47z m-774 -133 l0 -170 -283 0 -284 0 -19 163 -19 162 105 6 c58 3 194 6
303 7 l197 2 0 -170z m-797 8 c10 -84 17 -159 17 -165 0 -10 -50 -13 -215 -13
-241 0 -247 1 -308 69 -46 51 -64 87 -77 153 -6 29 -13 63 -16 75 l-4 23 187
3 c104 1 236 3 294 5 l105 2 17 -152z m41 -1099 c158 -39 208 -238 89 -351
-85 -81 -211 -74 -291 17 -42 47 -52 74 -52 136 0 88 60 169 147 196 49 15 56
15 107 2z m2280 0 c158 -40 209 -238 89 -351 -101 -97 -257 -66 -324 64 -54
106 10 248 128 285 49 15 56 15 107 2z"/>
</g>
</svg>
