<?xml version="1.0" standalone="no"?>
<!DOCTYPE svg PUBLIC "-//W3C//DTD SVG 20010904//EN"
 "http://www.w3.org/TR/2001/REC-SVG-20010904/DTD/svg10.dtd">
<svg version="1.0" xmlns="http://www.w3.org/2000/svg"
 width="512.000000pt" height="512.000000pt" viewBox="0 0 512.000000 512.000000"
 preserveAspectRatio="xMidYMid meet">
<metadata>
Created by potrace 1.16, written by Peter Selinger 2001-2019
</metadata>
<g transform="translate(0.000000,512.000000) scale(0.100000,-0.100000)"
fill="#000000" stroke="none">
<path d="M1375 4464 c-247 -44 -477 -161 -658 -333 -178 -169 -298 -376 -364
-627 -26 -103 -28 -121 -28 -314 0 -182 3 -216 24 -300 42 -166 100 -300 194
-440 38 -58 278 -304 1033 -1060 l984 -985 970 970 c638 638 989 996 1025
1045 113 157 197 356 230 544 20 115 20 337 0 452 -94 538 -512 956 -1049
1049 -113 19 -314 19 -436 0 -241 -40 -480 -159 -657 -329 l-83 -79 -82 79
c-178 170 -417 289 -658 329 -118 19 -337 18 -445 -1z m470 -343 c194 -53 300
-124 532 -354 l183 -181 187 185 c237 233 337 298 549 355 107 29 350 27 463
-4 647 -177 923 -935 542 -1484 -35 -51 -311 -334 -896 -918 l-845 -845 -845
845 c-585 584 -861 867 -896 918 -260 375 -225 875 86 1210 129 139 301 240
485 284 126 29 324 24 455 -11z"/>
</g>
</svg>
