<?xml version="1.0"?>
<svg xmlns="http://www.w3.org/2000/svg" xmlns:xlink="http://www.w3.org/1999/xlink" xmlns:svgjs="http://svgjs.com/svgjs" version="1.1" width="512" height="512" x="0" y="0" viewBox="0 0 512 512" style="enable-background:new 0 0 512 512" xml:space="preserve" class=""><g transform="matrix(1,0,0,1,0,0)">
<g xmlns="http://www.w3.org/2000/svg">
	<g>
		<path d="M437.02,74.98C388.667,26.628,324.38,0,256,0S123.333,26.628,74.98,74.98C26.628,123.333,0,187.62,0,256    s26.628,132.667,74.98,181.02C123.333,485.372,187.62,512,256,512s132.667-26.628,181.02-74.98    C485.372,388.667,512,324.38,512,256S485.372,123.333,437.02,74.98z M256,478.609c-122.746,0-222.609-99.862-222.609-222.609    S133.254,33.391,256,33.391S478.609,133.254,478.609,256S378.746,478.609,256,478.609z" fill="#e70000" data-original="#000000" style="" class=""/>
	</g>
</g>
<g xmlns="http://www.w3.org/2000/svg">
	<g>
		<path d="M312.861,140.678c-21.329,0-41.471,7.949-56.861,21.919c-15.39-13.97-35.532-21.919-56.861-21.919    c-46.701,0-84.694,37.994-84.694,84.695c0,33.636,22.869,71.228,67.969,111.732c31.944,28.688,63.452,48.355,64.778,49.179    l8.807,5.469l8.808-5.469c1.326-0.823,32.834-20.491,64.778-49.179c45.102-40.504,67.969-78.096,67.969-111.732    C397.555,178.671,359.561,140.678,312.861,140.678z M307.617,311.952c-20.068,18.065-40.401,32.577-51.617,40.174    c-11.216-7.598-31.549-22.109-51.617-40.174c-36.464-32.825-56.546-63.573-56.546-86.579c0-28.289,23.014-51.304,51.302-51.304    c17.327,0,33.367,8.671,42.907,23.193L256,218.504l13.954-21.241c9.54-14.523,25.58-23.192,42.907-23.192    c28.289,0,51.302,23.014,51.302,51.303C364.163,248.379,344.082,279.126,307.617,311.952z" fill="#e70000" data-original="#000000" style="" class=""/>
	</g>
</g>
<g xmlns="http://www.w3.org/2000/svg">
</g>
<g xmlns="http://www.w3.org/2000/svg">
</g>
<g xmlns="http://www.w3.org/2000/svg">
</g>
<g xmlns="http://www.w3.org/2000/svg">
</g>
<g xmlns="http://www.w3.org/2000/svg">
</g>
<g xmlns="http://www.w3.org/2000/svg">
</g>
<g xmlns="http://www.w3.org/2000/svg">
</g>
<g xmlns="http://www.w3.org/2000/svg">
</g>
<g xmlns="http://www.w3.org/2000/svg">
</g>
<g xmlns="http://www.w3.org/2000/svg">
</g>
<g xmlns="http://www.w3.org/2000/svg">
</g>
<g xmlns="http://www.w3.org/2000/svg">
</g>
<g xmlns="http://www.w3.org/2000/svg">
</g>
<g xmlns="http://www.w3.org/2000/svg">
</g>
<g xmlns="http://www.w3.org/2000/svg">
</g>
</g></svg>
