<?xml version="1.0" standalone="no"?>
<!DOCTYPE svg PUBLIC "-//W3C//DTD SVG 20010904//EN"
 "http://www.w3.org/TR/2001/REC-SVG-20010904/DTD/svg10.dtd">
<svg version="1.0" xmlns="http://www.w3.org/2000/svg"
 width="512.000000pt" height="512.000000pt" viewBox="0 0 512.000000 512.000000"
 preserveAspectRatio="xMidYMid meet">
<metadata>
Created by potrace 1.16, written by Peter Selinger 2001-2019
</metadata>
<g transform="translate(0.000000,512.000000) scale(0.100000,-0.100000)"
fill="#F95F62" stroke="none">
<path d="M100 3060 l0 -1950 1485 0 1485 0 0 -500 c0 -275 2 -500 4 -500 3 0
140 81 306 181 188 113 307 179 317 175 8 -4 142 -83 298 -176 156 -93 290
-173 299 -176 15 -6 16 38 16 495 l0 501 355 0 355 0 0 1950 0 1950 -2460 0
-2460 0 0 -1950z m4710 0 l0 -1740 -250 0 -250 0 0 194 c0 160 3 196 15 206
28 23 104 154 130 225 153 404 -22 845 -410 1036 -115 56 -215 79 -350 79
-133 0 -204 -12 -306 -51 -504 -194 -686 -821 -365 -1257 l46 -62 0 -185 0
-185 -1380 0 -1380 0 0 1740 0 1740 2250 0 2250 0 0 -1740z m-996 -225 c216
-46 405 -227 461 -445 71 -270 -65 -565 -316 -689 -137 -67 -258 -85 -393 -56
-200 42 -372 189 -448 380 -40 102 -50 252 -24 355 61 242 242 410 501 464 45
9 154 5 219 -9z m-297 -1400 c157 -34 363 -11 508 54 l65 30 0 -515 c0 -283
-3 -513 -7 -511 -5 2 -93 55 -197 117 -104 62 -194 113 -200 113 -6 0 -98 -53
-204 -117 -106 -64 -195 -116 -198 -116 -2 0 -4 231 -4 514 l0 513 85 -34 c47
-19 115 -40 152 -48z"/>
<path d="M1220 4290 l0 -110 1340 0 1340 0 0 110 0 110 -1340 0 -1340 0 0
-110z"/>
<path d="M1740 3675 l0 -105 820 0 820 0 0 105 0 105 -820 0 -820 0 0 -105z"/>
<path d="M710 1830 l0 -110 570 0 570 0 0 110 0 110 -570 0 -570 0 0 -110z"/>
</g>
</svg>
