<?xml version="1.0" standalone="no"?>
<!DOCTYPE svg PUBLIC "-//W3C//DTD SVG 20010904//EN"
 "http://www.w3.org/TR/2001/REC-SVG-20010904/DTD/svg10.dtd">
<svg version="1.0" xmlns="http://www.w3.org/2000/svg"
 width="512.000000pt" height="512.000000pt" viewBox="0 0 512.000000 512.000000"
 preserveAspectRatio="xMidYMid meet">
<metadata>
Created by potrace 1.16, written by Peter Selinger 2001-2019
</metadata>
<g transform="translate(0.000000,512.000000) scale(0.100000,-0.100000)"
fill="##F95F62" stroke="none">
<path d="M403 4139 c-64 -25 -131 -88 -163 -154 l-25 -50 0 -1375 0 -1375 24
-49 c29 -60 85 -117 143 -148 l43 -23 2117 -3 2117 -2 55 21 c67 25 132 85
166 154 l25 50 0 1375 0 1375 -25 50 c-29 59 -84 116 -142 147 l-43 23 -2120
2 c-2102 2 -2120 2 -2172 -18z m4236 -214 c41 -20 52 -58 49 -157 l-3 -86
-1068 -867 -1068 -866 -576 367 c-317 202 -584 368 -592 370 -9 2 -227 -144
-486 -326 l-470 -329 -3 906 c-2 847 -1 909 15 942 10 20 29 41 43 48 20 10
462 13 2078 13 1776 0 2057 -2 2081 -15z m40 -2688 c-25 -61 123 -57 -2118
-57 -1568 0 -2056 3 -2076 12 -51 23 -55 46 -55 315 l0 248 471 330 c259 182
475 332 480 333 5 2 273 -164 594 -368 l585 -372 368 295 c202 163 680 548
1062 855 l695 560 3 -1062 c2 -783 -1 -1068 -9 -1089z"/>
<path d="M2106 3610 c-274 -87 -385 -427 -216 -663 169 -235 531 -235 700 0
137 192 93 467 -97 603 -108 77 -260 101 -387 60z m240 -235 c133 -78 131
-273 -4 -352 -179 -105 -385 99 -279 279 60 102 180 133 283 73z"/>
</g>
</svg>
