<?xml version="1.0" standalone="no"?>
<!DOCTYPE svg PUBLIC "-//W3C//DTD SVG 20010904//EN"
 "http://www.w3.org/TR/2001/REC-SVG-20010904/DTD/svg10.dtd">
<svg version="1.0" xmlns="http://www.w3.org/2000/svg"
 width="512.000000pt" height="512.000000pt" viewBox="0 0 512.000000 512.000000"
 preserveAspectRatio="xMidYMid meet">
<metadata>
Created by potrace 1.16, written by Peter Selinger 2001-2019
</metadata>
<g transform="translate(0.000000,512.000000) scale(0.100000,-0.100000)"
fill="#000000" stroke="none">
<path d="M1950 4693 c-450 -48 -882 -289 -1165 -648 -167 -213 -285 -478 -337
-753 -31 -166 -31 -438 0 -604 116 -620 558 -1130 1145 -1323 195 -64 305 -80
542 -80 219 0 300 10 460 56 172 50 351 132 495 229 l85 57 685 -678 685 -678
152 151 152 151 -679 684 -679 685 65 96 c119 179 207 388 254 607 34 154 39
459 12 620 -65 376 -218 673 -487 940 -272 271 -613 436 -1005 484 -79 10
-302 12 -380 4z m443 -458 c516 -116 905 -520 998 -1035 22 -121 17 -345 -10
-470 -109 -503 -488 -882 -991 -991 -125 -27 -349 -32 -470 -10 -524 94 -937
501 -1041 1026 -23 113 -18 389 8 500 31 129 77 250 135 351 197 344 511 567
903 639 100 18 368 13 468 -10z"/>
</g>
</svg>
